<svg width="32" height="32" viewBox="0 0 32 32" fill="none" xmlns="http://www.w3.org/2000/svg">
<g clip-path="url(#clip0_90_122)">
<path d="M14.4762 20.5714L19.0476 16L14.4762 11.4286" stroke="black" stroke-linecap="round" stroke-linejoin="round"/>
<path d="M19.0476 16H5.33332" stroke="black" stroke-linecap="round" stroke-linejoin="round"/>
<path d="M6.85718 12.9523V8.36885C6.85718 6.69042 8.21429 5.32792 9.89271 5.32126L22.0105 5.2731C23.6936 5.26651 25.0635 6.62555 25.0702 8.30869L25.1308 23.5913C25.1374 25.2744 23.7784 26.6443 22.0952 26.651C22.0912 26.651 22.0872 26.651 22.0832 26.651H9.9048C8.22164 26.651 6.85718 25.2865 6.85718 23.6033V19.0476" stroke="black" stroke-linecap="round" stroke-linejoin="round"/>
<path d="M14.4762 20.5714L19.0476 16L14.4762 11.4286" stroke="black" stroke-linecap="round" stroke-linejoin="round"/>
<path d="M19.0476 16H5.33332" stroke="black" stroke-linecap="round" stroke-linejoin="round"/>
<path d="M6.85718 12.9523V8.36885C6.85718 6.69042 8.21429 5.32792 9.89271 5.32126L22.0105 5.2731C23.6936 5.26651 25.0635 6.62555 25.0702 8.30869L25.1308 23.5913C25.1374 25.2744 23.7784 26.6443 22.0952 26.651C22.0912 26.651 22.0872 26.651 22.0832 26.651H9.9048C8.22164 26.651 6.85718 25.2865 6.85718 23.6033V19.0476" stroke="black" stroke-linecap="round" stroke-linejoin="round"/>
<path d="M14.4762 20.5714L19.0476 16L14.4762 11.4286" stroke="black" stroke-linecap="round" stroke-linejoin="round"/>
<path d="M19.0476 16H5.33332" stroke="black" stroke-linecap="round" stroke-linejoin="round"/>
<path d="M6.85718 12.9523V8.36885C6.85718 6.69042 8.21429 5.32792 9.89271 5.32126L22.0105 5.2731C23.6936 5.26651 25.0635 6.62555 25.0702 8.30869L25.1308 23.5913C25.1374 25.2744 23.7784 26.6443 22.0952 26.651C22.0912 26.651 22.0872 26.651 22.0832 26.651H9.9048C8.22164 26.651 6.85718 25.2865 6.85718 23.6033V19.0476" stroke="black" stroke-linecap="round" stroke-linejoin="round"/>
</g>
<defs>
<clipPath id="clip0_90_122">
<rect width="32" height="32" fill="white"/>
</clipPath>
</defs>
</svg>
